<svg xmlns="http://www.w3.org/2000/svg" viewBox="0 0 400 400" width="400" height="400">
<defs><linearGradient id="bg" x1="0" y1="0" x2="0" y2="1"><stop offset="0" stop-color="#eaf6fd"/><stop offset="1" stop-color="#cfe7f7"/></linearGradient></defs>
<rect width="400" height="400" fill="url(#bg)"/>
<ellipse cx="200" cy="345" rx="120" ry="13" fill="#000" opacity=".13"/>
<path d="M90 260 q-10 -60 60 -80 l60 -20 q40 -10 60 20 q20 30 -10 50 l-40 20 q-20 10 -40 50 l-20 50 q-8 16 -24 8 l-40 -20 q-16 -8 -6 -24z" fill="#26c6da"/>
<ellipse cx="275" cy="190" rx="48" ry="42" fill="#00838f" transform="rotate(-20 275 190)"/>
<ellipse cx="278" cy="188" rx="36" ry="30" fill="#b2ebf2" transform="rotate(-20 275 190)"/>
<circle cx="258" cy="175" r="3.5" fill="#00838f"/><circle cx="270" cy="175" r="3.5" fill="#00838f"/><circle cx="282" cy="175" r="3.5" fill="#00838f"/><circle cx="294" cy="175" r="3.5" fill="#00838f"/><circle cx="258" cy="187" r="3.5" fill="#00838f"/><circle cx="270" cy="187" r="3.5" fill="#00838f"/><circle cx="282" cy="187" r="3.5" fill="#00838f"/><circle cx="294" cy="187" r="3.5" fill="#00838f"/><circle cx="258" cy="199" r="3.5" fill="#00838f"/><circle cx="270" cy="199" r="3.5" fill="#00838f"/><circle cx="282" cy="199" r="3.5" fill="#00838f"/><circle cx="294" cy="199" r="3.5" fill="#00838f"/>
<circle cx="150" cy="220" r="14" fill="#ffca28"/>
<path d="M140 310 q20 -10 20 30" fill="none" stroke="#546e7a" stroke-width="8" stroke-linecap="round"/>
<path d="M320 140 l20 -8" stroke="#4fc3f7" stroke-width="4" stroke-linecap="round"/><path d="M335 170 l20 -8" stroke="#4fc3f7" stroke-width="4" stroke-linecap="round"/><path d="M345 200 l20 -8" stroke="#4fc3f7" stroke-width="4" stroke-linecap="round"/><path d="M330 230 l20 -8" stroke="#4fc3f7" stroke-width="4" stroke-linecap="round"/>
<circle cx="70" cy="120" r="16" fill="#fff" opacity=".7" stroke="#b3e5fc" stroke-width="2"/><circle cx="110" cy="90" r="10" fill="#fff" opacity=".7" stroke="#b3e5fc" stroke-width="2"/><circle cx="330" cy="90" r="12" fill="#fff" opacity=".7" stroke="#b3e5fc" stroke-width="2"/>
</svg>
