<svg xmlns="http://www.w3.org/2000/svg" viewBox="0 0 400 400" width="400" height="400">
<defs><linearGradient id="bg" x1="0" y1="0" x2="0" y2="1"><stop offset="0" stop-color="#f3f1ef"/><stop offset="1" stop-color="#e1dbd6"/></linearGradient></defs>
<rect width="400" height="400" fill="url(#bg)"/>
<ellipse cx="200" cy="345" rx="120" ry="13" fill="#000" opacity=".13"/>
<line x1="140" y1="260" x2="110" y2="340" stroke="#424242" stroke-width="10" stroke-linecap="round"/>
<line x1="260" y1="260" x2="290" y2="340" stroke="#424242" stroke-width="10" stroke-linecap="round"/>
<line x1="200" y1="270" x2="200" y2="340" stroke="#424242" stroke-width="10" stroke-linecap="round"/>
<path d="M80 200 Q80 290 200 290 Q320 290 320 200 Z" fill="#c62828"/>
<ellipse cx="200" cy="200" rx="120" ry="22" fill="#b71c1c"/>
<ellipse cx="200" cy="198" rx="112" ry="18" fill="#3e2723"/>
<line x1="110" y1="191" x2="110" y2="205" stroke="#bdbdbd" stroke-width="3"/><line x1="132" y1="189.5" x2="132" y2="206.5" stroke="#bdbdbd" stroke-width="3"/><line x1="154" y1="188" x2="154" y2="208" stroke="#bdbdbd" stroke-width="3"/><line x1="176" y1="186.5" x2="176" y2="209.5" stroke="#bdbdbd" stroke-width="3"/><line x1="198" y1="185" x2="198" y2="211" stroke="#bdbdbd" stroke-width="3"/><line x1="220" y1="186.5" x2="220" y2="209.5" stroke="#bdbdbd" stroke-width="3"/><line x1="242" y1="188" x2="242" y2="208" stroke="#bdbdbd" stroke-width="3"/><line x1="264" y1="189.5" x2="264" y2="206.5" stroke="#bdbdbd" stroke-width="3"/><line x1="286" y1="191" x2="286" y2="205" stroke="#bdbdbd" stroke-width="3"/>
<line x1="90" y1="198" x2="310" y2="198" stroke="#bdbdbd" stroke-width="3"/>
<ellipse cx="160" cy="194" rx="26" ry="8" fill="#6d4c41"/><ellipse cx="240" cy="198" rx="26" ry="8" fill="#6d4c41"/>
<path d="M150 170 q-12 -20 0 -40 q12 -20 0 -40" fill="none" stroke="#9e9e9e" stroke-width="5" stroke-linecap="round" opacity=".55"/><path d="M200 170 q-12 -20 0 -40 q12 -20 0 -40" fill="none" stroke="#9e9e9e" stroke-width="5" stroke-linecap="round" opacity=".55"/><path d="M250 170 q-12 -20 0 -40 q12 -20 0 -40" fill="none" stroke="#9e9e9e" stroke-width="5" stroke-linecap="round" opacity=".55"/>
<path d="M185 250 h30" stroke="#ffcdd2" stroke-width="6" stroke-linecap="round"/>
</svg>
